<svg xmlns:dc="http://purl.org/dc/elements/1.1/" xmlns:cc="http://creativecommons.org/ns#" xmlns:rdf="http://www.w3.org/1999/02/22-rdf-syntax-ns#" xmlns:svg="http://www.w3.org/2000/svg" xmlns="http://www.w3.org/2000/svg" id="svg2" xml:space="preserve" viewBox="49.27 83.01 287.24 68.08">      <g id="g11" transform="matrix(1.25,0,0,-1.25,0,170.98389)">      <path d="M 254.82422,46.84375 L 254.75781,43.56836 L 255.41211,42.91406 L 255.41211,37.32813 C 256,36.24414 256.21289,37.32813 256.21289,37.32813 L 256.21289,47.37305 C 255.26563,48.12402 254.82422,46.84375 254.82422,46.84375 M 257.03516,57.78027 C 252.77539,57.78027 249.41699,56.10059 247.25684,53.04102 L 247.13672,53.04102 L 246.7168,57.12012 L 238.79883,57.12012 C 238.91895,54.36035 239.03906,51.12109 239.03906,47.28223 L 239.03906,15.91016 L 248.15723,15.91016 L 248.15723,30.48633 L 248.27637,30.48633 C 249.59668,28.56738 252.35547,27.12695 255.89453,27.12695 C 262.43359,27.12695 269.21191,32.16602 269.21191,42.84375 C 269.21191,52.20117 263.45313,57.78027 257.03516,57.78027 M 254.21875,36.14453 C 250.82617,36.14453 248.07227,38.89648 248.07227,42.29102 C 248.07227,45.6875 250.82617,48.43555 254.21875,48.43555 C 257.61328,48.43555 260.36719,45.6875 260.36719,42.29102 C 260.36719,38.89648 257.61328,36.14453 254.21875,36.14453 M 253.20898,45.06055 L 252.93555,47.35254 L 252.56641,45.01367 L 252.33398,47.34668 C 252.33398,47.34668 250.94141,44.79883 252.4375,43.88281 L 252.4375,37.32813 C 252.4375,37.32813 252.75781,36.18164 253.22266,37.32813 L 253.22266,43.91406 C 253.22266,43.91406 254.79785,44.34375 253.37988,47.34668 L 253.20898,45.06055 M 225.83984,41.53223 C 225.83984,42.29688 225.21582,42.9248 224.44824,42.9248 C 223.6748,42.9248 223.05371,42.29688 223.05371,41.53223 C 223.05371,40.7627 223.6748,40.1377 224.44824,40.1377 C 225.21582,40.1377 225.83984,40.7627 225.83984,41.53223 M 205.99902,39.79297 L 203.77539,34.2998 L 204.22266,34 L 206.08301,37.45117 L 206.28418,37.16797 L 204.2998,32.02637 L 206.21582,32.02637 L 206.83496,27.45215 L 207.61133,27.45215 L 208.22949,32.02637 L 210.14941,32.02637 L 208.19434,37.27441 L 208.36523,37.45117 L 210.22656,34 L 210.67285,34.2998 L 208.44043,39.79297 L 205.99902,39.79297 M 227.93164,57.78027 C 225.77148,57.78027 223.97168,57.24023 222.35254,56.34082 C 220.91309,55.50098 219.65332,54.30078 218.51367,52.74121 L 218.39355,52.74121 C 217.13379,55.80078 214.19434,57.78027 210.35547,57.78027 C 205.37695,57.78027 202.7373,55.02051 201.47754,53.10156 L 201.29785,53.10156 L 200.9375,57.12012 L 193.19922,57.12012 C 193.31934,54.48047 193.43945,51.42188 193.43945,47.7627 L 193.43945,27.78711 L 202.31738,27.78711 L 202.31738,44.82324 C 202.31738,45.60254 202.37695,46.44238 202.67676,47.16211 C 203.2168,48.60254 204.59668,50.40137 206.93652,50.40137 C 209.87598,50.40137 211.19531,47.88281 211.19531,44.22363 L 211.19531,27.78711 L 220.07324,27.78711 L 220.07324,44.94336 C 220.07324,45.66309 220.19336,46.5625 220.37305,47.22266 C 221.0332,48.96191 222.47266,50.40137 224.63184,50.40137 C 227.57129,50.40137 228.95117,47.94238 228.95117,43.68359 L 228.95117,27.78711 L 237.8291,27.78711 L 237.8291,45.06348 C 237.8291,53.82129 233.57031,57.78027 227.93164,57.78027 M 207.16406,40.1377 C 207.93066,40.1377 208.55859,40.7627 208.55859,41.53223 C 208.55859,42.29688 207.93066,42.9248 207.16406,42.9248 C 206.39355,42.9248 205.77148,42.29688 205.77148,41.53223 C 205.77148,40.7627 206.39355,40.1377 207.16406,40.1377 M 222.44238,39.79297 L 221.61621,39.15625 L 221.61621,32.83887 L 222.35156,32.83887 L 222.35547,37.33203 L 222.94824,37.33203 L 222.94824,27.45215 L 223.96094,27.45215 L 224.22266,31.22363 L 224.53906,31.22363 L 224.82715,27.45215 L 225.78418,27.45215 L 225.78418,37.33203 L 226.38086,37.33203 L 226.38086,32.83887 L 227.12305,32.83887 L 227.12305,39.28711 L 226.2627,39.79297 L 222.44238,39.79297 M 192.17285,45.12305 C 192.17285,52.02148 189.11328,57.78027 179.33594,57.78027 C 173.99707,57.78027 169.97852,56.28027 167.93848,55.14063 L 169.61816,49.32227 C 171.53809,50.46191 174.7168,51.48145 177.7168,51.48145 C 182.21484,51.48145 183.05469,49.26172 183.05469,47.70215 L 183.05469,47.34277 C 179.10547,47.34277 175.67383,46.81836 172.93164,45.75195 C 172.54004,45.69238 172.18457,45.53418 171.88574,45.30273 C 168.06152,43.49316 165.83887,40.46289 165.83887,36.125 C 165.83887,35.63281 165.88672,35.14551 165.96387,34.66602 L 158.69434,45.24316 L 169.19238,57.12012 L 158.21484,57.12012 L 152.27637,48.24219 C 151.55615,47.16211 150.83643,45.96289 150.17676,44.70313 L 150.05664,44.70313 L 150.05664,70.37695 L 140.93896,70.37695 L 140.93896,47.8252 C 139.64063,53.29004 135.83496,57.83984 128.396,57.83984 C 118.30078,57.83984 113.62256,49.69141 113.5835,42.27832 C 112.30664,43.66113 110.4082,44.7793 107.75635,45.66309 C 104.15723,46.92285 103.01709,47.64258 103.01709,49.08203 C 103.01709,50.52148 104.27686,51.42188 106.49658,51.42188 C 108.95605,51.42188 111.53516,50.46191 112.85498,49.80176 L 114.41455,56.04004 C 112.61523,56.94043 109.61572,57.78027 106.19678,57.78027 C 98.93848,57.78027 94.25928,53.64063 94.25928,48.12207 C 94.19922,44.70313 96.53906,41.34375 102.65723,39.36426 C 106.0166,38.22461 106.9165,37.50488 106.9165,35.94531 C 106.9165,34.44531 105.77686,33.5459 103.01709,33.5459 C 100.31787,33.5459 96.83887,34.68555 95.15918,35.70508 L 94.04102,31.23242 C 93.97998,32.36914 93.95313,33.6084 93.95313,34.86523 L 93.95313,45.12305 C 93.95313,52.02148 90.89404,57.78027 81.11621,57.78027 C 75.77734,57.78027 71.7583,56.28027 69.71875,55.14063 L 71.39844,49.32227 C 73.31787,50.46191 76.49756,51.48145 79.49658,51.48145 C 83.99561,51.48145 84.83545,49.26172 84.83545,47.70215 L 84.83545,47.34277 C 77.93262,47.34277 72.61084,45.73926 69.81055,42.43066 C 69.81494,42.61133 69.83203,42.78027 69.83203,42.96387 C 69.89209,51.96094 64.79297,57.78027 57.7749,57.78027 C 53.6958,57.78027 50.63672,56.16016 48.89697,53.64063 L 48.77686,53.64063 L 48.77686,70.37695 L 39.65918,70.37695 L 39.65918,36.54492 C 39.65918,33.24609 39.53906,29.70703 39.41895,27.78711 L 47.15723,27.78711 L 47.51709,31.86621 L 47.63721,31.86621 C 49.67676,28.38672 53.03613,27.12695 56.45508,27.12695 C 60.92969,27.12695 65.36621,29.48242 67.83838,34.16699 C 68.68115,30.30859 72.00195,27.12695 77.09717,27.12695 C 80.57617,27.12695 83.57568,28.38672 85.49512,30.72656 L 85.67529,30.72656 L 86.21484,27.78711 L 94.43311,27.78711 C 94.36182,28.1084 94.30225,28.48145 94.24902,28.87891 C 96.45557,27.85938 99.56201,27.12695 103.01709,27.12695 C 110.16211,27.12695 114.29932,30.04199 115.37842,34.30859 C 117.78613,29.79785 122.54346,27.1875 129.23584,27.1875 C 133.19482,27.1875 136.854,27.78711 139.85352,29.04688 L 138.65381,35.22559 C 136.19434,34.38574 133.6748,33.96582 130.55566,33.96582 C 126.29639,33.96582 122.57764,35.76563 122.27734,39.60449 L 140.93896,39.54492 L 140.93896,27.78711 L 150.05664,27.78711 L 150.05664,36.90527 L 152.33643,39.84473 L 159.47461,27.78711 L 170.69141,27.78711 L 170.26758,28.40332 C 171.66406,27.60449 173.35645,27.12695 175.31738,27.12695 C 178.7959,27.12695 181.79492,28.38672 183.71484,30.72656 L 183.89453,30.72656 L 184.43457,27.78711 L 192.65234,27.78711 C 192.29297,29.40723 192.17285,32.10645 192.17285,34.86523 L 192.17285,45.12305 M 60.4585,40.57715 L 60.30322,41.54395 L 55.71533,45.42676 C 55.71533,45.42676 55.77393,49.14746 54.75049,49.14746 C 53.729,49.14746 53.83057,45.4834 53.83057,45.4834 L 49.20361,41.54395 L 48.99072,40.62012 L 53.85596,43.21777 L 54.34717,39.06543 L 52.86963,37.53809 L 52.82666,37.07324 L 54.78955,37.52832 L 56.67725,37.07324 L 56.64014,37.53809 L 55.28662,39.06543 L 55.65283,43.21777 L 60.42578,40.37207 C 59.82715,36.49219 57.60449,34.3252 54.2959,34.3252 C 51.65625,34.3252 49.55664,36.24512 48.95703,38.64453 C 48.83691,39.12402 48.77686,39.66406 48.77686,40.26367 L 48.77686,44.58301 C 48.77686,45.18262 48.83691,45.72266 48.95703,46.2627 C 49.55664,48.90234 51.83643,50.76172 54.2959,50.76172 C 58.55469,50.76172 60.59424,47.16211 60.59424,42.60352 C 60.59424,41.88379 60.5459,41.20996 60.4585,40.57715 M 85.71973,34.05469 L 73.8584,34.05469 L 73.8584,35.00391 L 74.99316,35.00391 L 79.77246,44.21582 L 84.6123,35.00391 L 85.71973,35.00391 L 85.71973,34.05469 M 109.98242,32.34863 L 107.6582,32.34863 L 107.6582,34.58105 L 109.98242,34.58105 L 109.98242,32.34863 M 112.19141,38.88574 C 111.99609,38.60645 111.61914,38.24902 111.06445,37.81543 L 110.5166,37.38574 C 110.21875,37.15332 110.02051,36.88184 109.92285,36.57129 C 109.86133,36.37207 109.82813,36.06738 109.82227,35.65332 L 107.7041,35.65332 C 107.73438,36.52832 107.81836,37.13379 107.95215,37.46777 C 108.08789,37.80176 108.43457,38.18652 108.99414,38.62402 L 109.5625,39.06543 C 109.74805,39.20605 109.89844,39.35645 110.0127,39.52441 C 110.21973,39.80566 110.32324,40.11621 110.32324,40.45605 C 110.32324,40.84863 110.20801,41.2041 109.97852,41.52637 C 109.74805,41.84668 109.32813,42.00879 108.71875,42.00879 C 108.11719,42.00879 107.69336,41.81152 107.44141,41.41504 C 107.19141,41.02051 107.06543,40.61035 107.06543,40.18652 L 104.83301,40.18652 C 104.89355,41.65527 105.40918,42.69629 106.375,43.31152 C 106.98535,43.7041 107.73438,43.89941 108.62305,43.89941 C 109.79102,43.89941 110.76172,43.62012 111.5332,43.06348 C 112.30664,42.50488 112.69238,41.67676 112.69238,40.58105 C 112.69238,39.91113 112.52539,39.34473 112.19141,38.88574 M 130.86719,52.87207 L 131.57422,51.63379 L 132.77734,52.3252 L 131.12695,49.81934 L 128.1377,49.66504 L 129.30078,50.33105 C 129.30078,50.33105 128.0957,52.44824 127.89844,52.7666 C 127.70313,53.08887 126.76465,53.31152 126.76465,53.31152 C 130.71484,53.83301 130.86719,52.87207 130.86719,52.87207 M 125.27539,52.39941 C 125.27539,52.39941 125.91211,53.38379 126.97852,52.8916 C 128.00977,52.41309 127.52734,51.16504 127.52734,51.16504 L 126.1582,48.73926 L 123.89648,50.05176 L 125.27539,52.39941 M 122.5332,47.16504 L 123.24414,48.39746 L 122.04688,49.09277 L 125.04492,48.92285 L 126.67578,46.40918 L 125.51367,47.08301 C 125.51367,47.08301 124.28125,45.06152 124.10547,44.65137 C 123.93066,44.23535 124.20703,43.39551 124.20703,43.39551 C 121.60352,46.2627 122.5332,47.16504 122.5332,47.16504 M 128.65234,42.5752 L 125.93359,42.59277 C 125.93359,42.59277 124.75781,42.64941 124.65039,43.81348 C 124.54688,44.9502 125.87109,45.16113 125.87109,45.16113 L 128.65625,45.19043 L 128.65234,42.5752 M 131.64648,42.81152 L 130.2207,42.81152 L 130.2207,41.4248 L 128.86914,44.10645 L 130.2207,46.77441 L 130.2207,45.43457 C 130.2207,45.43457 132.62109,45.43457 133.03516,45.43457 C 133.44922,45.43457 134.07031,46.14746 134.07031,46.14746 C 132.83789,42.47559 131.64648,42.81152 131.64648,42.81152 M 133.54492,46.18848 C 132.61523,45.53223 131.76953,46.57324 131.76953,46.57324 L 130.34863,48.96777 L 132.61523,50.27637 L 133.96289,47.91309 C 133.96289,47.91309 134.50195,46.86426 133.54492,46.18848 M 156.38379,47.02832 L 156.5459,44.47754 L 155.95703,44.30664 L 155.67383,47.09668 L 156.38379,47.02832 M 158.91211,35.48145 L 156.3291,35.53418 C 152.0625,40.09668 152.75781,45.40332 152.75781,45.40332 L 154.70117,47.07227 L 155.08398,47.07227 L 155.39551,44.15527 L 154.54492,43.58984 L 156.71973,37.89355 L 157.57227,38.16504 L 159.20703,35.72949 L 158.91211,35.48145 M 159.73145,36.02344 L 158.00293,38.4209 L 158.6582,38.70215 L 160.16602,36.45703 L 159.73145,36.02344 M 184.25781,39.7832 L 184.25781,39.12305 L 182.0166,39.12305 L 182.0166,39.7832 L 184.25781,39.7832 M 174.24414,43.08008 L 182.30566,43.08008 L 182.30566,41.91016 L 174.24414,41.91016 L 174.24414,43.08008 M 172.21289,39.7832 L 174.45313,39.7832 L 174.45313,39.12305 L 172.21289,39.12305 L 172.21289,39.7832 M 184.27148,37.42578 L 181.82227,37.42969 L 182.88086,33.81055 L 181.66504,33.79297 L 180.59668,37.42969 L 176.10059,37.43555 L 175.0166,33.72852 L 173.79102,33.72852 L 174.88086,37.4375 L 172.22363,37.43945 L 172.22363,38.60938 L 175.21484,38.60938 L 176.03125,41.39844 L 177.25684,41.39844 L 176.44043,38.60547 L 180.27637,38.60547 L 179.41992,41.48242 L 180.64551,41.48242 L 181.48438,38.60547 L 184.27148,38.60547 L 184.27148,37.42578 M 77.51855,35.04688 L 81.92285,35.00391 L 79.82715,38.94336 L 77.51855,35.04688 z" style="fill:#ff9900;fill-opacity:1;fill-rule:nonzero;stroke:none"></path></g></svg>